

<svg width="20" height="15" viewBox="0 0 20 15" fill="none" xmlns="http://www.w3.org/2000/svg">


<path fill-rule="evenodd" clip-rule="evenodd" d="M17.9452 3.89133C18.2118 3.62542 18.2118 3.19315 17.9452 2.92724C17.6793 2.66065 17.2477 2.66065 16.9811 2.92724L9.78517 10.1231L7.52767 7.86633C7.26176 7.59974 6.82949 7.59974 6.56358 7.86633C6.29699 8.13292 6.29699 8.56451 6.56358 8.83042L9.26903 11.5366C9.27994 11.5481 9.29017 11.5597 9.30176 11.5706C9.43472 11.7043 9.60926 11.7704 9.78381 11.7704C9.81653 11.7704 9.84926 11.7684 9.88199 11.7636C10.0231 11.7438 10.1595 11.6797 10.2679 11.5706C10.2795 11.5597 10.2904 11.5481 10.3006 11.5359L17.9452 3.89133Z" fill="#5A8DEE"/>
<path fill-rule="evenodd" clip-rule="evenodd" d="M12.9452 3.89133C13.2118 3.62542 13.2118 3.19315 12.9452 2.92724C12.6793 2.66065 12.2477 2.66065 11.9811 2.92724L4.78517 10.1231L2.52767 7.86633C2.26176 7.59974 1.82949 7.59974 1.56358 7.86633C1.29699 8.13292 1.29699 8.56451 1.56358 8.83042L4.26903 11.5366C4.27994 11.5481 4.29017 11.5597 4.30176 11.5706C4.43472 11.7043 4.60926 11.7704 4.78381 11.7704C4.81653 11.7704 4.84926 11.7684 4.88199 11.7636C5.02312 11.7438 5.15949 11.6797 5.2679 11.5706C5.27949 11.5597 5.2904 11.5481 5.30062 11.5359L12.9452 3.89133Z" fill="#5A8DEE"/>


<rect class="imp" x="6.51459" y="6.84875" width="1.08828" height="2.35589" transform="rotate(45 6.51459 6.84875)" fill="white"/>
</svg>
