<svg width="23" height="23" viewBox="0 0 23 23" fill="none" xmlns="http://www.w3.org/2000/svg">
<path d="M18.8345 7.2829L8.4912 2.11123C1.54329 -1.36877 -1.30838 1.4829 2.17162 8.43081L3.22287 10.5333C3.52495 11.1496 3.52495 11.8625 3.22287 12.4787L2.17162 14.5691C-1.30838 21.5171 1.5312 24.3687 8.4912 20.8887L18.8345 15.7171C23.4745 13.3971 23.4745 9.6029 18.8345 7.2829ZM14.9316 12.4062H8.40662C7.9112 12.4062 7.50037 11.9954 7.50037 11.5C7.50037 11.0046 7.9112 10.5937 8.40662 10.5937H14.9316C15.427 10.5937 15.8379 11.0046 15.8379 11.5C15.8379 11.9954 15.427 12.4062 14.9316 12.4062Z" fill="#5A8DEE"/>
</svg>
